# MagicaVoxel @ Ephtracy

# group
g untitled-0

# material
mtllib untitled-0.mtl
usemtl palette

# normals
vn -1 0 0
vn 1 0 0
vn 0 0 1
vn 0 0 -1
vn 0 -1 0
vn 0 1 0

# texcoords
vt 0.0878906 0.5
vt 0.369141 0.5
vt 0.455078 0.5
vt 0.708984 0.5
vt 0.732422 0.5
vt 0.923828 0.5

# verts
v -21 0 11
v -21 0 9
v -21 0 -10
v -21 0 -12
v -21 15 9
v -21 15 -10
v -21 17 9
v -21 17 -10
v -21 19 -10
v -21 19 -12
v -21 20 11
v -21 20 9
v -20 4 9
v -20 4 -10
v -20 7 9
v -20 7 -10
v -20 9 9
v -20 9 5
v -20 9 3
v -20 9 2
v -20 9 -4
v -20 9 -5
v -20 9 -7
v -20 9 -10
v -20 11 5
v -20 11 4
v -20 11 -6
v -20 11 -7
v -20 12 4
v -20 12 3
v -20 12 2
v -20 12 -4
v -20 12 -5
v -20 12 -6
v -19 11 5
v -19 11 4
v -19 11 -6
v -19 11 -7
v -19 12 5
v -19 12 4
v -19 12 -6
v -19 12 -7
v -15 9 11
v -15 9 5
v -15 9 -7
v -15 9 -12
v -15 10 11
v -15 10 5
v -15 10 -7
v -15 10 -12
v 18 0 11
v 18 0 10
v 18 0 -11
v 18 0 -12
v 18 3 10
v 18 3 -11
v 18 4 11
v 18 4 10
v 18 4 -11
v 18 4 -12
v -20 9 11
v -20 9 9
v -20 9 -10
v -20 9 -12
v -20 15 9
v -20 15 -10
v -20 17 9
v -20 17 -10
v -20 19 -10
v -20 19 -12
v -20 20 11
v -20 20 9
v -18 0 11
v -18 0 9
v -18 0 -10
v -18 0 -12
v -18 4 11
v -18 4 9
v -18 4 -10
v -18 4 -12
v -14 11 5
v -14 11 4
v -14 11 -6
v -14 11 -7
v -14 12 5
v -14 12 4
v -14 12 -6
v -14 12 -7
v -13 10 5
v -13 10 3
v -13 10 2
v -13 10 -4
v -13 10 -5
v -13 10 -7
v -13 11 5
v -13 11 4
v -13 11 -6
v -13 11 -7
v -13 12 4
v -13 12 3
v -13 12 2
v -13 12 -4
v -13 12 -5
v -13 12 -6
v 20 0 11
v 20 0 10
v 20 0 -11
v 20 0 -12
v 20 3 10
v 20 3 -11
v 20 7 11
v 20 7 10
v 20 7 -11
v 20 7 -12
v 20 9 11
v 20 9 -12
v 20 10 11
v 20 10 -12
v -21 0 11
v -21 20 11
v -20 7 11
v -20 9 11
v -20 20 11
v -18 0 11
v -18 4 11
v -18 7 11
v -15 9 11
v -15 10 11
v -9 9 11
v -9 10 11
v -8 9 11
v -8 10 11
v -7 9 11
v -7 10 11
v -6 9 11
v -6 10 11
v 18 0 11
v 18 4 11
v 18 7 11
v 20 0 11
v 20 7 11
v 20 9 11
v 20 10 11
v -20 9 5
v -20 11 5
v -19 11 5
v -19 12 5
v -15 9 5
v -15 10 5
v -14 11 5
v -14 12 5
v -13 10 5
v -13 11 5
v -20 11 4
v -20 12 4
v -19 11 4
v -19 12 4
v -14 11 4
v -14 12 4
v -13 11 4
v -13 12 4
v -21 0 -10
v -21 15 -10
v -21 17 -10
v -21 19 -10
v -20 4 -10
v -20 7 -10
v -20 9 -10
v -20 15 -10
v -20 17 -10
v -20 19 -10
v -18 0 -10
v -18 4 -10
v 18 0 -11
v 18 3 -11
v 20 0 -11
v 20 3 -11
v 18 0 10
v 18 3 10
v 20 0 10
v 20 3 10
v -21 0 9
v -21 15 9
v -21 17 9
v -21 20 9
v -20 4 9
v -20 7 9
v -20 9 9
v -20 15 9
v -20 17 9
v -20 20 9
v -18 0 9
v -18 4 9
v -20 11 -6
v -20 12 -6
v -19 11 -6
v -19 12 -6
v -14 11 -6
v -14 12 -6
v -13 11 -6
v -13 12 -6
v -20 9 -7
v -20 11 -7
v -19 11 -7
v -19 12 -7
v -15 9 -7
v -15 10 -7
v -14 11 -7
v -14 12 -7
v -13 10 -7
v -13 11 -7
v -21 0 -12
v -21 19 -12
v -20 7 -12
v -20 9 -12
v -20 19 -12
v -18 0 -12
v -18 4 -12
v -18 7 -12
v -15 9 -12
v -15 10 -12
v -9 9 -12
v -9 10 -12
v -8 9 -12
v -8 10 -12
v -7 9 -12
v -7 10 -12
v -6 9 -12
v -6 10 -12
v 18 0 -12
v 18 4 -12
v 18 7 -12
v 20 0 -12
v 20 7 -12
v 20 9 -12
v 20 10 -12
v -21 0 11
v -18 0 11
v 18 0 11
v 20 0 11
v 18 0 10
v 20 0 10
v -21 0 9
v -18 0 9
v -21 0 -10
v -18 0 -10
v 18 0 -11
v 20 0 -11
v -21 0 -12
v -18 0 -12
v 18 0 -12
v 20 0 -12
v 18 3 10
v 20 3 10
v 18 3 -11
v 20 3 -11
v -18 4 11
v 18 4 11
v 18 4 10
v -20 4 9
v -18 4 9
v -20 4 -10
v -18 4 -10
v 18 4 -11
v -18 4 -12
v 18 4 -12
v -21 15 9
v -20 15 9
v -21 15 -10
v -20 15 -10
v -20 9 11
v -15 9 11
v -20 9 9
v -20 9 5
v -15 9 5
v -20 9 -7
v -15 9 -7
v -20 9 -10
v -20 9 -12
v -15 9 -12
v -15 10 11
v -9 10 11
v -8 10 11
v -7 10 11
v -6 10 11
v 20 10 11
v -15 10 5
v -13 10 5
v -13 10 3
v -13 10 2
v -13 10 -4
v -13 10 -5
v -15 10 -7
v -13 10 -7
v -15 10 -12
v -9 10 -12
v -8 10 -12
v -7 10 -12
v -6 10 -12
v 20 10 -12
v -20 11 5
v -19 11 5
v -14 11 5
v -13 11 5
v -20 11 4
v -19 11 4
v -14 11 4
v -13 11 4
v -20 11 -6
v -19 11 -6
v -14 11 -6
v -13 11 -6
v -20 11 -7
v -19 11 -7
v -14 11 -7
v -13 11 -7
v -19 12 5
v -14 12 5
v -20 12 4
v -19 12 4
v -14 12 4
v -13 12 4
v -20 12 3
v -13 12 3
v -20 12 2
v -13 12 2
v -20 12 -4
v -13 12 -4
v -20 12 -5
v -13 12 -5
v -20 12 -6
v -19 12 -6
v -14 12 -6
v -13 12 -6
v -19 12 -7
v -14 12 -7
v -21 17 9
v -20 17 9
v -21 17 -10
v -20 17 -10
v -21 19 -10
v -20 19 -10
v -21 19 -12
v -20 19 -12
v -21 20 11
v -20 20 11
v -21 20 9
v -20 20 9

# faces
f 5/1/1 2/1/1 1/1/1
f 6/1/1 4/1/1 3/1/1
f 7/1/1 5/1/1 1/1/1
f 7/1/1 6/1/1 5/1/1
f 8/1/1 4/1/1 6/1/1
f 8/1/1 6/1/1 7/1/1
f 9/1/1 4/1/1 8/1/1
f 10/1/1 4/1/1 9/1/1
f 11/1/1 7/1/1 1/1/1
f 12/1/1 7/1/1 11/1/1
f 15/2/1 14/2/1 13/2/1
f 16/2/1 14/2/1 15/2/1
f 17/3/1 16/3/1 15/3/1
f 18/3/1 16/3/1 17/3/1
f 19/3/1 16/3/1 18/3/1
f 20/3/1 16/3/1 19/3/1
f 21/3/1 16/3/1 20/3/1
f 22/3/1 16/3/1 21/3/1
f 23/3/1 16/3/1 22/3/1
f 24/3/1 16/3/1 23/3/1
f 25/6/1 19/6/1 18/6/1
f 26/6/1 19/6/1 25/6/1
f 27/6/1 23/6/1 22/6/1
f 28/6/1 23/6/1 27/6/1
f 29/6/1 19/6/1 26/6/1
f 30/4/1 20/4/1 19/4/1
f 30/6/1 19/6/1 29/6/1
f 31/6/1 21/6/1 20/6/1
f 31/4/1 20/4/1 30/4/1
f 32/4/1 22/4/1 21/4/1
f 32/6/1 21/6/1 31/6/1
f 33/6/1 27/6/1 22/6/1
f 33/4/1 22/4/1 32/4/1
f 34/6/1 27/6/1 33/6/1
f 39/6/1 36/6/1 35/6/1
f 40/6/1 36/6/1 39/6/1
f 41/6/1 38/6/1 37/6/1
f 42/6/1 38/6/1 41/6/1
f 47/5/1 44/5/1 43/5/1
f 48/5/1 44/5/1 47/5/1
f 49/5/1 46/5/1 45/5/1
f 50/5/1 46/5/1 49/5/1
f 55/1/1 52/1/1 51/1/1
f 56/1/1 54/1/1 53/1/1
f 57/1/1 55/1/1 51/1/1
f 58/2/1 56/2/1 55/2/1
f 58/1/1 55/1/1 57/1/1
f 59/1/1 54/1/1 56/1/1
f 59/2/1 56/2/1 58/2/1
f 60/1/1 54/1/1 59/1/1
f 61/1/2 62/1/2 65/1/2
f 63/1/2 64/1/2 66/1/2
f 61/1/2 65/1/2 67/1/2
f 65/1/2 66/1/2 67/1/2
f 66/1/2 64/1/2 68/1/2
f 67/1/2 66/1/2 68/1/2
f 68/1/2 64/1/2 69/1/2
f 69/1/2 64/1/2 70/1/2
f 61/1/2 67/1/2 71/1/2
f 71/1/2 67/1/2 72/1/2
f 73/1/2 74/1/2 77/1/2
f 77/1/2 74/1/2 78/1/2
f 75/1/2 76/1/2 79/1/2
f 79/1/2 76/1/2 80/1/2
f 81/6/2 82/6/2 85/6/2
f 85/6/2 82/6/2 86/6/2
f 83/6/2 84/6/2 87/6/2
f 87/6/2 84/6/2 88/6/2
f 89/6/2 90/6/2 95/6/2
f 95/6/2 90/6/2 96/6/2
f 93/6/2 94/6/2 97/6/2
f 97/6/2 94/6/2 98/6/2
f 96/6/2 90/6/2 99/6/2
f 90/4/2 91/4/2 100/4/2
f 99/6/2 90/6/2 100/6/2
f 91/6/2 92/6/2 101/6/2
f 100/4/2 91/4/2 101/4/2
f 92/4/2 93/4/2 102/4/2
f 101/6/2 92/6/2 102/6/2
f 93/6/2 97/6/2 103/6/2
f 102/4/2 93/4/2 103/4/2
f 103/6/2 97/6/2 104/6/2
f 105/1/2 106/1/2 109/1/2
f 107/1/2 108/1/2 110/1/2
f 105/1/2 109/1/2 111/1/2
f 109/2/2 110/2/2 112/2/2
f 111/1/2 109/1/2 112/1/2
f 110/1/2 108/1/2 113/1/2
f 112/2/2 110/2/2 113/2/2
f 113/1/2 108/1/2 114/1/2
f 111/3/2 112/3/2 115/3/2
f 112/3/2 113/3/2 115/3/2
f 113/3/2 114/3/2 115/3/2
f 115/3/2 114/3/2 116/3/2
f 115/5/2 116/5/2 117/5/2
f 117/5/2 116/5/2 118/5/2
f 121/1/3 120/1/3 119/1/3
f 122/1/3 120/1/3 121/1/3
f 123/1/3 120/1/3 122/1/3
f 124/1/3 121/1/3 119/1/3
f 125/1/3 121/1/3 124/1/3
f 126/3/3 122/3/3 121/3/3
f 126/1/3 121/1/3 125/1/3
f 127/3/3 122/3/3 126/3/3
f 129/3/3 127/3/3 126/3/3
f 129/5/3 128/5/3 127/5/3
f 130/5/3 128/5/3 129/5/3
f 131/3/3 129/3/3 126/3/3
f 131/4/3 130/4/3 129/4/3
f 132/4/3 130/4/3 131/4/3
f 133/3/3 131/3/3 126/3/3
f 133/5/3 132/5/3 131/5/3
f 134/5/3 132/5/3 133/5/3
f 135/3/3 133/3/3 126/3/3
f 135/4/3 134/4/3 133/4/3
f 136/4/3 134/4/3 135/4/3
f 138/2/3 126/2/3 125/2/3
f 139/3/3 135/3/3 126/3/3
f 139/2/3 126/2/3 138/2/3
f 140/1/3 138/1/3 137/1/3
f 140/1/3 139/1/3 138/1/3
f 141/3/3 135/3/3 139/3/3
f 141/1/3 139/1/3 140/1/3
f 142/5/3 136/5/3 135/5/3
f 142/3/3 135/3/3 141/3/3
f 143/5/3 136/5/3 142/5/3
f 146/6/3 145/6/3 144/6/3
f 148/6/3 146/6/3 144/6/3
f 148/6/3 147/6/3 146/6/3
f 149/6/3 147/6/3 148/6/3
f 150/6/3 147/6/3 149/6/3
f 151/6/3 147/6/3 150/6/3
f 152/6/3 150/6/3 149/6/3
f 153/6/3 150/6/3 152/6/3
f 156/6/3 155/6/3 154/6/3
f 157/6/3 155/6/3 156/6/3
f 160/6/3 159/6/3 158/6/3
f 161/6/3 159/6/3 160/6/3
f 166/1/3 163/1/3 162/1/3
f 167/1/3 163/1/3 166/1/3
f 168/1/3 163/1/3 167/1/3
f 169/1/3 163/1/3 168/1/3
f 170/1/3 165/1/3 164/1/3
f 171/1/3 165/1/3 170/1/3
f 172/1/3 166/1/3 162/1/3
f 173/1/3 166/1/3 172/1/3
f 176/1/3 175/1/3 174/1/3
f 177/1/3 175/1/3 176/1/3
f 178/1/4 179/1/4 180/1/4
f 180/1/4 179/1/4 181/1/4
f 182/1/4 183/1/4 186/1/4
f 186/1/4 183/1/4 187/1/4
f 187/1/4 183/1/4 188/1/4
f 188/1/4 183/1/4 189/1/4
f 184/1/4 185/1/4 190/1/4
f 190/1/4 185/1/4 191/1/4
f 182/1/4 186/1/4 192/1/4
f 192/1/4 186/1/4 193/1/4
f 194/6/4 195/6/4 196/6/4
f 196/6/4 195/6/4 197/6/4
f 198/6/4 199/6/4 200/6/4
f 200/6/4 199/6/4 201/6/4
f 202/6/4 203/6/4 204/6/4
f 202/6/4 204/6/4 206/6/4
f 204/6/4 205/6/4 206/6/4
f 206/6/4 205/6/4 207/6/4
f 207/6/4 205/6/4 208/6/4
f 208/6/4 205/6/4 209/6/4
f 207/6/4 208/6/4 210/6/4
f 210/6/4 208/6/4 211/6/4
f 212/1/4 213/1/4 214/1/4
f 214/1/4 213/1/4 215/1/4
f 215/1/4 213/1/4 216/1/4
f 212/1/4 214/1/4 217/1/4
f 217/1/4 214/1/4 218/1/4
f 214/3/4 215/3/4 219/3/4
f 218/1/4 214/1/4 219/1/4
f 219/3/4 215/3/4 220/3/4
f 219/3/4 220/3/4 222/3/4
f 220/5/4 221/5/4 222/5/4
f 222/5/4 221/5/4 223/5/4
f 219/3/4 222/3/4 224/3/4
f 222/4/4 223/4/4 224/4/4
f 224/4/4 223/4/4 225/4/4
f 219/3/4 224/3/4 226/3/4
f 224/5/4 225/5/4 226/5/4
f 226/5/4 225/5/4 227/5/4
f 219/3/4 226/3/4 228/3/4
f 226/4/4 227/4/4 228/4/4
f 228/4/4 227/4/4 229/4/4
f 218/2/4 219/2/4 231/2/4
f 219/3/4 228/3/4 232/3/4
f 231/2/4 219/2/4 232/2/4
f 230/1/4 231/1/4 233/1/4
f 231/1/4 232/1/4 233/1/4
f 232/3/4 228/3/4 234/3/4
f 233/1/4 232/1/4 234/1/4
f 228/5/4 229/5/4 235/5/4
f 234/3/4 228/3/4 235/3/4
f 235/5/4 229/5/4 236/5/4
f 241/1/5 240/1/5 239/1/5
f 242/1/5 240/1/5 241/1/5
f 243/1/5 238/1/5 237/1/5
f 244/1/5 238/1/5 243/1/5
f 249/1/5 246/1/5 245/1/5
f 250/1/5 246/1/5 249/1/5
f 251/1/5 248/1/5 247/1/5
f 252/1/5 248/1/5 251/1/5
f 255/2/5 254/2/5 253/2/5
f 256/2/5 254/2/5 255/2/5
f 259/2/5 258/2/5 257/2/5
f 261/2/5 259/2/5 257/2/5
f 262/2/5 261/2/5 260/2/5
f 263/2/5 259/2/5 261/2/5
f 263/2/5 261/2/5 262/2/5
f 264/2/5 259/2/5 263/2/5
f 265/2/5 264/2/5 263/2/5
f 266/2/5 264/2/5 265/2/5
f 269/1/5 268/1/5 267/1/5
f 270/1/5 268/1/5 269/1/5
f 271/3/6 272/3/6 273/3/6
f 273/3/6 272/3/6 274/3/6
f 274/3/6 272/3/6 275/3/6
f 276/3/6 277/3/6 278/3/6
f 278/3/6 277/3/6 279/3/6
f 279/3/6 277/3/6 280/3/6
f 281/5/6 282/5/6 287/5/6
f 287/5/6 282/5/6 288/5/6
f 288/5/6 282/5/6 289/5/6
f 289/5/6 282/5/6 290/5/6
f 290/5/6 282/5/6 291/5/6
f 291/5/6 282/5/6 292/5/6
f 292/5/6 282/5/6 294/5/6
f 293/5/6 294/5/6 295/5/6
f 282/4/6 283/4/6 296/4/6
f 295/5/6 294/5/6 296/5/6
f 294/5/6 282/5/6 296/5/6
f 283/5/6 284/5/6 297/5/6
f 296/4/6 283/4/6 297/4/6
f 284/4/6 285/4/6 298/4/6
f 297/5/6 284/5/6 298/5/6
f 285/5/6 286/5/6 299/5/6
f 298/4/6 285/4/6 299/4/6
f 299/5/6 286/5/6 300/5/6
f 301/6/6 302/6/6 305/6/6
f 305/6/6 302/6/6 306/6/6
f 303/6/6 304/6/6 307/6/6
f 307/6/6 304/6/6 308/6/6
f 309/6/6 310/6/6 313/6/6
f 313/6/6 310/6/6 314/6/6
f 311/6/6 312/6/6 315/6/6
f 315/6/6 312/6/6 316/6/6
f 317/6/6 318/6/6 320/6/6
f 320/6/6 318/6/6 321/6/6
f 319/6/6 320/6/6 323/6/6
f 321/6/6 322/6/6 323/6/6
f 320/6/6 321/6/6 323/6/6
f 323/6/6 322/6/6 324/6/6
f 323/4/6 324/4/6 325/4/6
f 325/4/6 324/4/6 326/4/6
f 325/6/6 326/6/6 327/6/6
f 327/6/6 326/6/6 328/6/6
f 327/4/6 328/4/6 329/4/6
f 329/4/6 328/4/6 330/4/6
f 329/6/6 330/6/6 331/6/6
f 331/6/6 330/6/6 332/6/6
f 332/6/6 330/6/6 333/6/6
f 333/6/6 330/6/6 334/6/6
f 332/6/6 333/6/6 335/6/6
f 335/6/6 333/6/6 336/6/6
f 337/1/6 338/1/6 339/1/6
f 339/1/6 338/1/6 340/1/6
f 341/1/6 342/1/6 343/1/6
f 343/1/6 342/1/6 344/1/6
f 345/1/6 346/1/6 347/1/6
f 347/1/6 346/1/6 348/1/6
