# MagicaVoxel @ Ephtracy

# group
g untitled-1

# material
mtllib untitled-1.mtl
usemtl palette

# normals
vn -1 0 0
vn 1 0 0
vn 0 0 1
vn 0 0 -1
vn 0 -1 0
vn 0 1 0

# texcoords
vt 0.150391 0.5
vt 0.455078 0.5
vt 0.583984 0.5
vt 0.708984 0.5
vt 0.841797 0.5

# verts
v -10 0 -4
v -10 0 -7
v -10 1 -5
v -10 1 -6
v -10 2 -5
v -10 2 -6
v -10 3 -4
v -10 3 -7
v -5 0 -12
v -5 0 -15
v -5 1 -13
v -5 1 -14
v -5 2 -13
v -5 2 -14
v -5 3 -12
v -5 3 -15
v 1 0 4
v 1 0 3
v 1 1 4
v 1 1 3
v 1 2 4
v 1 2 3
v 1 3 4
v 1 3 3
v 2 0 5
v 2 0 4
v 2 0 3
v 2 0 2
v 2 1 4
v 2 1 3
v 2 2 4
v 2 2 3
v 2 3 5
v 2 3 4
v 2 3 3
v 2 3 2
v 3 0 6
v 3 0 5
v 3 0 2
v 3 0 1
v 3 1 6
v 3 1 5
v 3 2 6
v 3 2 5
v 3 3 6
v 3 3 5
v 3 3 2
v 3 3 1
v -7 0 -4
v -7 0 -7
v -7 1 -5
v -7 1 -6
v -7 2 -5
v -7 2 -6
v -7 3 -4
v -7 3 -7
v -2 0 -12
v -2 0 -15
v -2 1 -13
v -2 1 -14
v -2 2 -13
v -2 2 -14
v -2 3 -12
v -2 3 -15
v 4 0 6
v 4 0 5
v 4 0 2
v 4 0 1
v 4 1 6
v 4 1 5
v 4 2 6
v 4 2 5
v 4 3 6
v 4 3 5
v 4 3 2
v 4 3 1
v 5 0 5
v 5 0 4
v 5 0 3
v 5 0 2
v 5 3 5
v 5 3 4
v 5 3 3
v 5 3 2
v 6 0 4
v 6 0 3
v 6 3 4
v 6 3 3
v 3 0 6
v 3 1 6
v 3 2 6
v 3 3 6
v 4 0 6
v 4 1 6
v 4 2 6
v 4 3 6
v 2 0 5
v 2 3 5
v 3 0 5
v 3 1 5
v 3 2 5
v 3 3 5
v 4 0 5
v 4 1 5
v 4 2 5
v 4 3 5
v 5 0 5
v 5 3 5
v 1 0 4
v 1 1 4
v 1 2 4
v 1 3 4
v 2 0 4
v 2 1 4
v 2 2 4
v 2 3 4
v 5 0 4
v 5 3 4
v 6 0 4
v 6 3 4
v -10 0 -4
v -10 3 -4
v -9 1 -4
v -9 2 -4
v -8 1 -4
v -8 2 -4
v -7 0 -4
v -7 3 -4
v -5 0 -12
v -5 3 -12
v -4 1 -12
v -4 2 -12
v -3 1 -12
v -3 2 -12
v -2 0 -12
v -2 3 -12
v 1 0 3
v 1 1 3
v 1 2 3
v 1 3 3
v 2 0 3
v 2 1 3
v 2 2 3
v 2 3 3
v 5 0 3
v 5 3 3
v 6 0 3
v 6 3 3
v 2 0 2
v 2 3 2
v 3 0 2
v 3 3 2
v 4 0 2
v 4 3 2
v 5 0 2
v 5 3 2
v 3 0 1
v 3 3 1
v 4 0 1
v 4 3 1
v -10 0 -7
v -10 3 -7
v -7 0 -7
v -7 3 -7
v -5 0 -15
v -5 3 -15
v -2 0 -15
v -2 3 -15
v 3 0 6
v 4 0 6
v 2 0 5
v 3 0 5
v 4 0 5
v 5 0 5
v 1 0 4
v 2 0 4
v 5 0 4
v 6 0 4
v 1 0 3
v 2 0 3
v 5 0 3
v 6 0 3
v 2 0 2
v 3 0 2
v 4 0 2
v 5 0 2
v 3 0 1
v 4 0 1
v -10 0 -4
v -7 0 -4
v -10 0 -7
v -7 0 -7
v -5 0 -12
v -2 0 -12
v -5 0 -15
v -2 0 -15
v 3 3 6
v 4 3 6
v 2 3 5
v 3 3 5
v 4 3 5
v 5 3 5
v 1 3 4
v 2 3 4
v 3 3 4
v 4 3 4
v 5 3 4
v 6 3 4
v 1 3 3
v 2 3 3
v 3 3 3
v 4 3 3
v 5 3 3
v 6 3 3
v 2 3 2
v 3 3 2
v 4 3 2
v 5 3 2
v 3 3 1
v 4 3 1
v -10 3 -4
v -7 3 -4
v -9 3 -5
v -8 3 -5
v -9 3 -6
v -8 3 -6
v -10 3 -7
v -7 3 -7
v -5 3 -12
v -2 3 -12
v -4 3 -13
v -3 3 -13
v -4 3 -14
v -3 3 -14
v -5 3 -15
v -2 3 -15

# faces
f 3/1/1 2/1/1 1/1/1
f 4/1/1 2/1/1 3/1/1
f 5/1/1 3/1/1 1/1/1
f 5/3/1 4/3/1 3/3/1
f 6/1/1 2/1/1 4/1/1
f 6/3/1 4/3/1 5/3/1
f 7/1/1 5/1/1 1/1/1
f 7/1/1 6/1/1 5/1/1
f 8/1/1 2/1/1 6/1/1
f 8/1/1 6/1/1 7/1/1
f 11/1/1 10/1/1 9/1/1
f 12/1/1 10/1/1 11/1/1
f 13/1/1 11/1/1 9/1/1
f 13/5/1 12/5/1 11/5/1
f 14/1/1 10/1/1 12/1/1
f 14/5/1 12/5/1 13/5/1
f 15/1/1 13/1/1 9/1/1
f 15/1/1 14/1/1 13/1/1
f 16/1/1 10/1/1 14/1/1
f 16/1/1 14/1/1 15/1/1
f 19/1/1 18/1/1 17/1/1
f 20/1/1 18/1/1 19/1/1
f 21/4/1 20/4/1 19/4/1
f 22/4/1 20/4/1 21/4/1
f 23/1/1 22/1/1 21/1/1
f 24/1/1 22/1/1 23/1/1
f 29/1/1 26/1/1 25/1/1
f 30/1/1 28/1/1 27/1/1
f 31/1/1 29/1/1 25/1/1
f 32/1/1 28/1/1 30/1/1
f 33/1/1 31/1/1 25/1/1
f 34/1/1 31/1/1 33/1/1
f 35/1/1 28/1/1 32/1/1
f 36/1/1 28/1/1 35/1/1
f 41/1/1 38/1/1 37/1/1
f 42/1/1 38/1/1 41/1/1
f 43/2/1 42/2/1 41/2/1
f 44/2/1 42/2/1 43/2/1
f 45/1/1 44/1/1 43/1/1
f 46/1/1 44/1/1 45/1/1
f 47/1/1 40/1/1 39/1/1
f 48/1/1 40/1/1 47/1/1
f 49/1/2 50/1/2 51/1/2
f 51/1/2 50/1/2 52/1/2
f 49/1/2 51/1/2 53/1/2
f 51/2/2 52/2/2 53/2/2
f 52/1/2 50/1/2 54/1/2
f 53/2/2 52/2/2 54/2/2
f 49/1/2 53/1/2 55/1/2
f 53/1/2 54/1/2 55/1/2
f 54/1/2 50/1/2 56/1/2
f 55/1/2 54/1/2 56/1/2
f 57/1/2 58/1/2 59/1/2
f 59/1/2 58/1/2 60/1/2
f 57/1/2 59/1/2 61/1/2
f 59/2/2 60/2/2 61/2/2
f 60/1/2 58/1/2 62/1/2
f 61/2/2 60/2/2 62/2/2
f 57/1/2 61/1/2 63/1/2
f 61/1/2 62/1/2 63/1/2
f 62/1/2 58/1/2 64/1/2
f 63/1/2 62/1/2 64/1/2
f 65/1/2 66/1/2 69/1/2
f 69/1/2 66/1/2 70/1/2
f 69/2/2 70/2/2 71/2/2
f 71/2/2 70/2/2 72/2/2
f 71/1/2 72/1/2 73/1/2
f 73/1/2 72/1/2 74/1/2
f 67/1/2 68/1/2 75/1/2
f 75/1/2 68/1/2 76/1/2
f 77/1/2 78/1/2 81/1/2
f 81/1/2 78/1/2 82/1/2
f 79/1/2 80/1/2 83/1/2
f 83/1/2 80/1/2 84/1/2
f 85/1/2 86/1/2 87/1/2
f 87/1/2 86/1/2 88/1/2
f 93/1/3 90/1/3 89/1/3
f 94/2/3 91/2/3 90/2/3
f 94/1/3 90/1/3 93/1/3
f 95/1/3 92/1/3 91/1/3
f 95/2/3 91/2/3 94/2/3
f 96/1/3 92/1/3 95/1/3
f 99/1/3 98/1/3 97/1/3
f 100/1/3 98/1/3 99/1/3
f 101/1/3 98/1/3 100/1/3
f 102/1/3 98/1/3 101/1/3
f 107/1/3 104/1/3 103/1/3
f 107/1/3 106/1/3 105/1/3
f 107/1/3 105/1/3 104/1/3
f 108/1/3 106/1/3 107/1/3
f 113/1/3 110/1/3 109/1/3
f 114/4/3 111/4/3 110/4/3
f 114/1/3 110/1/3 113/1/3
f 115/1/3 112/1/3 111/1/3
f 115/4/3 111/4/3 114/4/3
f 116/1/3 112/1/3 115/1/3
f 119/1/3 118/1/3 117/1/3
f 120/1/3 118/1/3 119/1/3
f 123/1/3 122/1/3 121/1/3
f 124/1/3 122/1/3 123/1/3
f 125/1/3 123/1/3 121/1/3
f 125/5/3 124/5/3 123/5/3
f 126/1/3 122/1/3 124/1/3
f 126/5/3 124/5/3 125/5/3
f 127/1/3 125/1/3 121/1/3
f 127/1/3 126/1/3 125/1/3
f 128/1/3 122/1/3 126/1/3
f 128/1/3 126/1/3 127/1/3
f 131/1/3 130/1/3 129/1/3
f 132/1/3 130/1/3 131/1/3
f 133/1/3 131/1/3 129/1/3
f 133/4/3 132/4/3 131/4/3
f 134/1/3 130/1/3 132/1/3
f 134/4/3 132/4/3 133/4/3
f 135/1/3 133/1/3 129/1/3
f 135/1/3 134/1/3 133/1/3
f 136/1/3 130/1/3 134/1/3
f 136/1/3 134/1/3 135/1/3
f 137/1/4 138/1/4 141/1/4
f 138/4/4 139/4/4 142/4/4
f 141/1/4 138/1/4 142/1/4
f 139/1/4 140/1/4 143/1/4
f 142/4/4 139/4/4 143/4/4
f 143/1/4 140/1/4 144/1/4
f 145/1/4 146/1/4 147/1/4
f 147/1/4 146/1/4 148/1/4
f 149/1/4 150/1/4 151/1/4
f 151/1/4 150/1/4 152/1/4
f 153/1/4 154/1/4 155/1/4
f 155/1/4 154/1/4 156/1/4
f 157/1/4 158/1/4 159/1/4
f 159/1/4 158/1/4 160/1/4
f 161/1/4 162/1/4 163/1/4
f 163/1/4 162/1/4 164/1/4
f 165/1/4 166/1/4 167/1/4
f 167/1/4 166/1/4 168/1/4
f 172/1/5 170/1/5 169/1/5
f 173/1/5 170/1/5 172/1/5
f 176/1/5 172/1/5 171/1/5
f 176/1/5 174/1/5 173/1/5
f 176/1/5 173/1/5 172/1/5
f 177/1/5 174/1/5 176/1/5
f 179/1/5 176/1/5 175/1/5
f 179/1/5 178/1/5 177/1/5
f 179/1/5 177/1/5 176/1/5
f 180/1/5 178/1/5 179/1/5
f 181/1/5 178/1/5 180/1/5
f 182/1/5 178/1/5 181/1/5
f 183/1/5 181/1/5 180/1/5
f 184/1/5 181/1/5 183/1/5
f 185/1/5 181/1/5 184/1/5
f 186/1/5 181/1/5 185/1/5
f 187/1/5 185/1/5 184/1/5
f 188/1/5 185/1/5 187/1/5
f 191/1/5 190/1/5 189/1/5
f 192/1/5 190/1/5 191/1/5
f 195/1/5 194/1/5 193/1/5
f 196/1/5 194/1/5 195/1/5
f 197/1/6 198/1/6 200/1/6
f 200/1/6 198/1/6 201/1/6
f 199/1/6 200/1/6 204/1/6
f 201/1/6 202/1/6 204/1/6
f 200/1/6 201/1/6 204/1/6
f 204/1/6 202/1/6 205/1/6
f 205/1/6 202/1/6 206/1/6
f 206/1/6 202/1/6 207/1/6
f 203/1/6 204/1/6 209/1/6
f 204/1/6 205/1/6 209/1/6
f 209/1/6 205/1/6 210/1/6
f 205/5/6 206/5/6 211/5/6
f 210/1/6 205/1/6 211/1/6
f 207/1/6 208/1/6 212/1/6
f 211/5/6 206/5/6 212/5/6
f 206/1/6 207/1/6 212/1/6
f 212/1/6 208/1/6 213/1/6
f 213/1/6 208/1/6 214/1/6
f 210/1/6 211/1/6 215/1/6
f 212/1/6 213/1/6 215/1/6
f 211/1/6 212/1/6 215/1/6
f 215/1/6 213/1/6 216/1/6
f 216/1/6 213/1/6 217/1/6
f 217/1/6 213/1/6 218/1/6
f 216/1/6 217/1/6 219/1/6
f 219/1/6 217/1/6 220/1/6
f 221/1/6 222/1/6 223/1/6
f 223/1/6 222/1/6 224/1/6
f 221/1/6 223/1/6 225/1/6
f 223/4/6 224/4/6 225/4/6
f 224/1/6 222/1/6 226/1/6
f 225/4/6 224/4/6 226/4/6
f 221/1/6 225/1/6 227/1/6
f 225/1/6 226/1/6 227/1/6
f 226/1/6 222/1/6 228/1/6
f 227/1/6 226/1/6 228/1/6
f 229/1/6 230/1/6 231/1/6
f 231/1/6 230/1/6 232/1/6
f 229/1/6 231/1/6 233/1/6
f 231/3/6 232/3/6 233/3/6
f 232/1/6 230/1/6 234/1/6
f 233/3/6 232/3/6 234/3/6
f 229/1/6 233/1/6 235/1/6
f 233/1/6 234/1/6 235/1/6
f 234/1/6 230/1/6 236/1/6
f 235/1/6 234/1/6 236/1/6
