# MagicaVoxel @ Ephtracy

# group
g untitled-2

# material
mtllib untitled-2.mtl
usemtl palette

# normals
vn -1 0 0
vn 1 0 0
vn 0 0 1
vn 0 0 -1
vn 0 -1 0
vn 0 1 0

# texcoords
vt 0.322266 0.5
vt 0.365234 0.5
vt 0.373047 0.5
vt 0.857422 0.5
vt 0.923828 0.5

# verts
v -12 0 7
v -12 0 5
v -12 0 -5
v -12 0 -7
v -12 15 5
v -12 15 -5
v -12 18 7
v -12 18 5
v -12 18 4
v -12 18 3
v -12 18 2
v -12 18 -0
v -12 18 -1
v -12 18 -4
v -12 18 -5
v -12 18 -7
v -12 19 7
v -12 19 5
v -12 19 4
v -12 19 3
v -12 19 2
v -12 19 -0
v -12 19 -1
v -12 19 -4
v -12 19 -5
v -12 19 -7
v -9 19 -2
v -9 19 -5
v -9 20 -2
v -9 20 -5
v -9 22 -2
v -9 22 -3
v -9 23 -2
v -9 23 -3
v -9 23 -5
v -9 24 -2
v -9 24 -5
v -8 24 -3
v -8 24 -4
v -8 25 -3
v -8 25 -4
v -2 17 -0
v -2 17 -1
v -2 18 -0
v -2 18 -1
v 6 0 7
v 6 0 5
v 6 0 -5
v 6 0 -7
v 6 15 6
v 6 15 5
v 6 16 7
v 6 16 6
v 6 16 -5
v 6 16 -7
v 7 15 6
v 7 15 5
v 7 15 -5
v 7 16 6
v 7 16 -5
v -10 0 7
v -10 0 5
v -10 0 -5
v -10 0 -7
v -10 15 5
v -10 15 -5
v -10 16 7
v -10 16 -7
v -7 24 -3
v -7 24 -4
v -7 25 -3
v -7 25 -4
v -6 19 -2
v -6 19 -5
v -6 20 -2
v -6 20 -3
v -6 20 -5
v -6 21 -2
v -6 21 -3
v -6 23 -2
v -6 23 -5
v -6 24 -2
v -6 24 -5
v -3 17 -0
v -3 17 -1
v -3 18 -0
v -3 18 -1
v 8 0 7
v 8 0 5
v 8 0 -5
v 8 0 -7
v 8 15 5
v 8 15 -5
v 8 18 7
v 8 18 6
v 8 18 5
v 8 18 1
v 8 18 -0
v 8 18 -3
v 8 18 -4
v 8 18 -5
v 8 18 -6
v 8 18 -7
v 8 19 7
v 8 19 6
v 8 19 5
v 8 19 1
v 8 19 -0
v 8 19 -3
v 8 19 -4
v 8 19 -5
v 8 19 -6
v 8 19 -7
v -12 0 7
v -12 18 7
v -12 19 7
v -10 0 7
v -10 16 7
v 6 0 7
v 6 16 7
v 8 0 7
v 8 18 7
v 8 19 7
v -3 17 -1
v -3 18 -1
v -2 17 -1
v -2 18 -1
v -9 19 -2
v -9 20 -2
v -9 22 -2
v -9 23 -2
v -9 24 -2
v -8 21 -2
v -8 22 -2
v -8 23 -2
v -7 20 -2
v -7 21 -2
v -7 22 -2
v -6 19 -2
v -6 20 -2
v -6 21 -2
v -6 23 -2
v -6 24 -2
v -8 24 -3
v -8 25 -3
v -7 24 -3
v -7 25 -3
v -12 0 -5
v -12 15 -5
v -10 0 -5
v -10 15 -5
v 6 0 -5
v 6 16 -5
v 7 15 -5
v 7 16 -5
v 8 0 -5
v 8 15 -5
v 6 15 6
v 6 16 6
v 7 15 6
v 7 16 6
v -12 0 5
v -12 15 5
v -10 0 5
v -10 15 5
v 6 0 5
v 6 15 5
v 7 15 5
v 8 0 5
v 8 15 5
v -3 17 -0
v -3 18 -0
v -2 17 -0
v -2 18 -0
v -8 24 -4
v -8 25 -4
v -7 24 -4
v -7 25 -4
v -9 19 -5
v -9 20 -5
v -9 23 -5
v -9 24 -5
v -6 19 -5
v -6 20 -5
v -6 23 -5
v -6 24 -5
v -12 0 -7
v -12 18 -7
v -12 19 -7
v -10 0 -7
v -10 16 -7
v -9 18 -7
v -9 19 -7
v -1 18 -7
v -1 19 -7
v 6 0 -7
v 6 16 -7
v 8 0 -7
v 8 18 -7
v 8 19 -7
v -12 0 7
v -10 0 7
v 6 0 7
v 8 0 7
v -12 0 5
v -10 0 5
v 6 0 5
v 8 0 5
v -12 0 -5
v -10 0 -5
v 6 0 -5
v 8 0 -5
v -12 0 -7
v -10 0 -7
v 6 0 -7
v 8 0 -7
v -12 15 5
v -10 15 5
v 7 15 5
v 8 15 5
v -12 15 -5
v -10 15 -5
v 7 15 -5
v 8 15 -5
v -10 16 7
v 6 16 7
v 6 16 6
v 7 16 6
v 6 16 -5
v 7 16 -5
v -10 16 -7
v 6 16 -7
v -3 18 -0
v -2 18 -0
v -3 18 -1
v -2 18 -1
v 6 15 6
v 7 15 6
v 6 15 5
v 7 15 5
v -3 17 -0
v -2 17 -0
v -3 17 -1
v -2 17 -1
v -12 19 7
v 8 19 7
v -5 19 6
v 8 19 6
v -12 19 5
v -8 19 5
v -5 19 5
v 8 19 5
v -12 19 4
v -8 19 4
v -12 19 3
v 6 19 3
v -12 19 2
v 6 19 2
v 6 19 1
v 8 19 1
v -12 19 -0
v -5 19 -0
v -2 19 -0
v 4 19 -0
v 6 19 -0
v 8 19 -0
v -12 19 -1
v -5 19 -1
v -2 19 -1
v 4 19 -1
v -9 19 -2
v -6 19 -2
v -2 19 -3
v 8 19 -3
v -12 19 -4
v -10 19 -4
v -5 19 -4
v -3 19 -4
v -2 19 -4
v 8 19 -4
v -12 19 -5
v -10 19 -5
v -9 19 -5
v -6 19 -5
v -5 19 -5
v -3 19 -5
v 2 19 -5
v 8 19 -5
v -9 19 -6
v -1 19 -6
v 2 19 -6
v 8 19 -6
v -12 19 -7
v -9 19 -7
v -1 19 -7
v 8 19 -7
v -9 24 -2
v -6 24 -2
v -8 24 -3
v -7 24 -3
v -8 24 -4
v -7 24 -4
v -9 24 -5
v -6 24 -5
v -8 25 -3
v -7 25 -3
v -8 25 -4
v -7 25 -4

# faces
f 5/3/1 2/3/1 1/3/1
f 6/3/1 4/3/1 3/3/1
f 7/3/1 5/3/1 1/3/1
f 7/3/1 6/3/1 5/3/1
f 8/3/1 6/3/1 7/3/1
f 9/3/1 6/3/1 8/3/1
f 10/3/1 6/3/1 9/3/1
f 11/3/1 6/3/1 10/3/1
f 12/3/1 6/3/1 11/3/1
f 13/3/1 6/3/1 12/3/1
f 14/3/1 6/3/1 13/3/1
f 15/3/1 4/3/1 6/3/1
f 15/3/1 6/3/1 14/3/1
f 16/3/1 4/3/1 15/3/1
f 17/2/1 8/2/1 7/2/1
f 18/3/1 9/3/1 8/3/1
f 18/2/1 8/2/1 17/2/1
f 19/2/1 10/2/1 9/2/1
f 19/3/1 9/3/1 18/3/1
f 20/3/1 11/3/1 10/3/1
f 20/2/1 10/2/1 19/2/1
f 21/2/1 12/2/1 11/2/1
f 21/3/1 11/3/1 20/3/1
f 22/3/1 13/3/1 12/3/1
f 22/2/1 12/2/1 21/2/1
f 23/2/1 14/2/1 13/2/1
f 23/3/1 13/3/1 22/3/1
f 24/3/1 15/3/1 14/3/1
f 24/2/1 14/2/1 23/2/1
f 25/2/1 16/2/1 15/2/1
f 25/3/1 15/3/1 24/3/1
f 26/2/1 16/2/1 25/2/1
f 29/4/1 28/4/1 27/4/1
f 30/4/1 28/4/1 29/4/1
f 31/5/1 30/5/1 29/5/1
f 32/5/1 30/5/1 31/5/1
f 33/1/1 32/1/1 31/1/1
f 34/5/1 30/5/1 32/5/1
f 34/1/1 32/1/1 33/1/1
f 35/5/1 30/5/1 34/5/1
f 36/4/1 34/4/1 33/4/1
f 36/4/1 35/4/1 34/4/1
f 37/4/1 35/4/1 36/4/1
f 40/5/1 39/5/1 38/5/1
f 41/5/1 39/5/1 40/5/1
f 44/2/1 43/2/1 42/2/1
f 45/2/1 43/2/1 44/2/1
f 50/3/1 47/3/1 46/3/1
f 51/3/1 47/3/1 50/3/1
f 52/3/1 50/3/1 46/3/1
f 53/3/1 50/3/1 52/3/1
f 54/3/1 49/3/1 48/3/1
f 55/3/1 49/3/1 54/3/1
f 59/3/1 57/3/1 56/3/1
f 59/3/1 58/3/1 57/3/1
f 60/3/1 58/3/1 59/3/1
f 61/3/2 62/3/2 65/3/2
f 63/3/2 64/3/2 66/3/2
f 61/3/2 65/3/2 67/3/2
f 65/3/2 66/3/2 67/3/2
f 66/3/2 64/3/2 68/3/2
f 67/3/2 66/3/2 68/3/2
f 69/5/2 70/5/2 71/5/2
f 71/5/2 70/5/2 72/5/2
f 73/4/2 74/4/2 75/4/2
f 75/4/2 74/4/2 76/4/2
f 76/4/2 74/4/2 77/4/2
f 75/1/2 76/1/2 78/1/2
f 76/5/2 77/5/2 79/5/2
f 78/1/2 76/1/2 79/1/2
f 78/5/2 79/5/2 80/5/2
f 79/5/2 77/5/2 81/5/2
f 80/5/2 79/5/2 81/5/2
f 80/4/2 81/4/2 82/4/2
f 82/4/2 81/4/2 83/4/2
f 84/2/2 85/2/2 86/2/2
f 86/2/2 85/2/2 87/2/2
f 88/3/2 89/3/2 92/3/2
f 90/3/2 91/3/2 93/3/2
f 88/3/2 92/3/2 94/3/2
f 92/3/2 93/3/2 94/3/2
f 94/3/2 93/3/2 95/3/2
f 95/3/2 93/3/2 96/3/2
f 96/3/2 93/3/2 97/3/2
f 97/3/2 93/3/2 98/3/2
f 98/3/2 93/3/2 99/3/2
f 99/3/2 93/3/2 100/3/2
f 93/3/2 91/3/2 101/3/2
f 100/3/2 93/3/2 101/3/2
f 101/3/2 91/3/2 102/3/2
f 102/3/2 91/3/2 103/3/2
f 94/2/2 95/2/2 104/2/2
f 95/3/2 96/3/2 105/3/2
f 104/2/2 95/2/2 105/2/2
f 96/2/2 97/2/2 106/2/2
f 105/3/2 96/3/2 106/3/2
f 97/3/2 98/3/2 107/3/2
f 106/2/2 97/2/2 107/2/2
f 98/2/2 99/2/2 108/2/2
f 107/3/2 98/3/2 108/3/2
f 99/3/2 100/3/2 109/3/2
f 108/2/2 99/2/2 109/2/2
f 100/2/2 101/2/2 110/2/2
f 109/3/2 100/3/2 110/3/2
f 101/3/2 102/3/2 111/3/2
f 110/2/2 101/2/2 111/2/2
f 102/2/2 103/2/2 112/2/2
f 111/3/2 102/3/2 112/3/2
f 112/2/2 103/2/2 113/2/2
f 117/3/3 115/3/3 114/3/3
f 118/3/3 115/3/3 117/3/3
f 120/3/3 115/3/3 118/3/3
f 121/3/3 120/3/3 119/3/3
f 122/2/3 116/2/3 115/2/3
f 122/3/3 120/3/3 121/3/3
f 122/3/3 115/3/3 120/3/3
f 123/2/3 116/2/3 122/2/3
f 126/2/3 125/2/3 124/2/3
f 127/2/3 125/2/3 126/2/3
f 133/5/3 130/5/3 129/5/3
f 134/1/3 131/1/3 130/1/3
f 134/5/3 130/5/3 133/5/3
f 135/4/3 132/4/3 131/4/3
f 135/1/3 131/1/3 134/1/3
f 136/4/3 129/4/3 128/4/3
f 136/5/3 133/5/3 129/5/3
f 137/1/3 134/1/3 133/1/3
f 137/5/3 133/5/3 136/5/3
f 138/5/3 135/5/3 134/5/3
f 138/1/3 134/1/3 137/1/3
f 139/4/3 136/4/3 128/4/3
f 140/1/3 137/1/3 136/1/3
f 140/4/3 136/4/3 139/4/3
f 141/5/3 138/5/3 137/5/3
f 141/1/3 137/1/3 140/1/3
f 142/4/3 132/4/3 135/4/3
f 142/5/3 138/5/3 141/5/3
f 142/5/3 135/5/3 138/5/3
f 143/4/3 132/4/3 142/4/3
f 146/5/3 145/5/3 144/5/3
f 147/5/3 145/5/3 146/5/3
f 150/3/3 149/3/3 148/3/3
f 151/3/3 149/3/3 150/3/3
f 154/3/3 153/3/3 152/3/3
f 155/3/3 153/3/3 154/3/3
f 156/3/3 154/3/3 152/3/3
f 157/3/3 154/3/3 156/3/3
f 158/3/4 159/3/4 160/3/4
f 160/3/4 159/3/4 161/3/4
f 162/3/4 163/3/4 164/3/4
f 164/3/4 163/3/4 165/3/4
f 166/3/4 167/3/4 168/3/4
f 166/3/4 168/3/4 169/3/4
f 169/3/4 168/3/4 170/3/4
f 171/2/4 172/2/4 173/2/4
f 173/2/4 172/2/4 174/2/4
f 175/5/4 176/5/4 177/5/4
f 177/5/4 176/5/4 178/5/4
f 179/4/4 180/4/4 183/4/4
f 180/5/4 181/5/4 184/5/4
f 183/4/4 180/4/4 184/4/4
f 181/4/4 182/4/4 185/4/4
f 184/5/4 181/5/4 185/5/4
f 185/4/4 182/4/4 186/4/4
f 187/3/4 188/3/4 190/3/4
f 190/3/4 188/3/4 191/3/4
f 188/2/4 189/2/4 192/2/4
f 191/3/4 188/3/4 192/3/4
f 192/2/4 189/2/4 193/2/4
f 191/3/4 192/3/4 194/3/4
f 192/3/4 193/3/4 194/3/4
f 194/3/4 193/3/4 195/3/4
f 191/3/4 194/3/4 197/3/4
f 196/3/4 197/3/4 198/3/4
f 194/2/4 195/2/4 199/2/4
f 198/3/4 197/3/4 199/3/4
f 197/3/4 194/3/4 199/3/4
f 199/2/4 195/2/4 200/2/4
f 205/3/5 202/3/5 201/3/5
f 206/3/5 202/3/5 205/3/5
f 207/3/5 204/3/5 203/3/5
f 208/3/5 204/3/5 207/3/5
f 213/3/5 210/3/5 209/3/5
f 214/3/5 210/3/5 213/3/5
f 215/3/5 212/3/5 211/3/5
f 216/3/5 212/3/5 215/3/5
f 221/3/5 218/3/5 217/3/5
f 222/3/5 218/3/5 221/3/5
f 223/3/5 220/3/5 219/3/5
f 224/3/5 220/3/5 223/3/5
f 227/3/5 226/3/5 225/3/5
f 229/3/5 227/3/5 225/3/5
f 229/3/5 228/3/5 227/3/5
f 230/3/5 228/3/5 229/3/5
f 231/3/5 229/3/5 225/3/5
f 232/3/5 229/3/5 231/3/5
f 235/2/5 234/2/5 233/2/5
f 236/2/5 234/2/5 235/2/5
f 237/3/6 238/3/6 239/3/6
f 239/3/6 238/3/6 240/3/6
f 241/3/6 242/3/6 243/3/6
f 243/3/6 242/3/6 244/3/6
f 245/2/6 246/2/6 247/2/6
f 247/2/6 246/2/6 248/2/6
f 245/2/6 247/2/6 249/2/6
f 249/2/6 247/2/6 250/2/6
f 247/3/6 248/3/6 251/3/6
f 250/2/6 247/2/6 251/2/6
f 251/3/6 248/3/6 252/3/6
f 249/3/6 250/3/6 253/3/6
f 250/2/6 251/2/6 254/2/6
f 253/3/6 250/3/6 254/3/6
f 251/2/6 252/2/6 254/2/6
f 253/2/6 254/2/6 255/2/6
f 254/2/6 252/2/6 256/2/6
f 255/2/6 254/2/6 256/2/6
f 255/3/6 256/3/6 257/3/6
f 256/2/6 252/2/6 258/2/6
f 257/3/6 256/3/6 258/3/6
f 257/2/6 258/2/6 259/2/6
f 258/2/6 252/2/6 259/2/6
f 259/2/6 252/2/6 260/2/6
f 257/2/6 259/2/6 261/2/6
f 261/2/6 259/2/6 262/2/6
f 262/2/6 259/2/6 263/2/6
f 263/2/6 259/2/6 264/2/6
f 259/3/6 260/3/6 265/3/6
f 264/2/6 259/2/6 265/2/6
f 265/3/6 260/3/6 266/3/6
f 261/3/6 262/3/6 267/3/6
f 262/2/6 263/2/6 268/2/6
f 267/3/6 262/3/6 268/3/6
f 263/3/6 264/3/6 269/3/6
f 268/2/6 263/2/6 269/2/6
f 264/2/6 265/2/6 270/2/6
f 269/3/6 264/3/6 270/3/6
f 265/2/6 266/2/6 270/2/6
f 267/2/6 268/2/6 271/2/6
f 268/2/6 269/2/6 271/2/6
f 269/2/6 270/2/6 271/2/6
f 271/2/6 270/2/6 272/2/6
f 272/2/6 270/2/6 273/2/6
f 270/2/6 266/2/6 274/2/6
f 273/2/6 270/2/6 274/2/6
f 267/2/6 271/2/6 275/2/6
f 275/2/6 271/2/6 276/2/6
f 272/2/6 273/2/6 277/2/6
f 277/2/6 273/2/6 278/2/6
f 273/3/6 274/3/6 279/3/6
f 278/2/6 273/2/6 279/2/6
f 279/3/6 274/3/6 280/3/6
f 275/3/6 276/3/6 281/3/6
f 276/2/6 271/2/6 282/2/6
f 281/3/6 276/3/6 282/3/6
f 282/2/6 271/2/6 283/2/6
f 272/2/6 277/2/6 284/2/6
f 277/3/6 278/3/6 285/3/6
f 284/2/6 277/2/6 285/2/6
f 278/2/6 279/2/6 286/2/6
f 285/3/6 278/3/6 286/3/6
f 279/2/6 280/2/6 286/2/6
f 286/2/6 280/2/6 287/2/6
f 287/2/6 280/2/6 288/2/6
f 283/2/6 284/2/6 289/2/6
f 282/2/6 283/2/6 289/2/6
f 284/2/6 285/2/6 289/2/6
f 286/2/6 287/2/6 289/2/6
f 285/2/6 286/2/6 289/2/6
f 281/2/6 282/2/6 289/2/6
f 289/2/6 287/2/6 290/2/6
f 287/3/6 288/3/6 291/3/6
f 290/2/6 287/2/6 291/2/6
f 291/3/6 288/3/6 292/3/6
f 281/2/6 289/2/6 293/2/6
f 289/3/6 290/3/6 294/3/6
f 293/2/6 289/2/6 294/2/6
f 290/2/6 291/2/6 295/2/6
f 294/3/6 290/3/6 295/3/6
f 291/2/6 292/2/6 295/2/6
f 295/2/6 292/2/6 296/2/6
f 297/4/6 298/4/6 299/4/6
f 299/4/6 298/4/6 300/4/6
f 297/4/6 299/4/6 301/4/6
f 300/4/6 298/4/6 302/4/6
f 297/4/6 301/4/6 303/4/6
f 301/4/6 302/4/6 303/4/6
f 302/4/6 298/4/6 304/4/6
f 303/4/6 302/4/6 304/4/6
f 305/5/6 306/5/6 307/5/6
f 307/5/6 306/5/6 308/5/6
