# MagicaVoxel @ Ephtracy

# group
g untitled-1

# material
mtllib untitled-1.mtl
usemtl palette

# normals
vn -1 0 0
vn 1 0 0
vn 0 0 1
vn 0 0 -1
vn 0 -1 0
vn 0 1 0

# texcoords
vt 0.552734 0.5
vt 0.556641 0.5
vt 0.572266 0.5

# verts
v -20 0 20
v -20 0 13
v -20 12 20
v -20 12 19
v -20 18 20
v -20 18 19
v -20 40 20
v -20 40 13
v -1 17 18
v -1 17 15
v -1 25 18
v -1 25 15
v -1 26 18
v -1 26 15
v -1 36 18
v -1 36 15
v 7 17 18
v 7 17 15
v 7 25 18
v 7 25 15
v 7 26 18
v 7 26 15
v 7 36 18
v 7 36 15
v 8 16 20
v 8 16 19
v 8 16 18
v 8 16 15
v 8 16 13
v 8 18 20
v 8 18 19
v 8 37 20
v 8 37 18
v 8 37 15
v 8 37 13
v -5 16 20
v -5 16 19
v -5 16 18
v -5 16 15
v -5 16 13
v -5 18 20
v -5 18 19
v -5 37 20
v -5 37 18
v -5 37 15
v -5 37 13
v -4 17 18
v -4 17 15
v -4 25 18
v -4 25 15
v -4 26 18
v -4 26 15
v -4 36 18
v -4 36 15
v 0 17 18
v 0 17 15
v 0 25 18
v 0 25 15
v 0 26 18
v 0 26 15
v 0 36 18
v 0 36 15
v 20 0 20
v 20 0 13
v 20 12 20
v 20 12 19
v 20 18 20
v 20 18 19
v 20 40 20
v 20 40 13
v -20 0 20
v -20 12 20
v -20 18 20
v -20 40 20
v -5 16 20
v -5 18 20
v -5 37 20
v 8 16 20
v 8 18 20
v 8 37 20
v 20 0 20
v 20 12 20
v 20 18 20
v 20 40 20
v -5 16 18
v -5 37 18
v -4 17 18
v -4 25 18
v -4 26 18
v -4 36 18
v -1 17 18
v -1 25 18
v -1 26 18
v -1 36 18
v 0 17 18
v 0 25 18
v 0 26 18
v 0 36 18
v 7 17 18
v 7 25 18
v 7 26 18
v 7 36 18
v 8 16 18
v 8 37 18
v -5 16 15
v -5 37 15
v -4 17 15
v -4 25 15
v -4 26 15
v -4 36 15
v -1 17 15
v -1 25 15
v -1 26 15
v -1 36 15
v 0 17 15
v 0 25 15
v 0 26 15
v 0 36 15
v 7 17 15
v 7 25 15
v 7 26 15
v 7 36 15
v 8 16 15
v 8 37 15
v -20 0 13
v -20 40 13
v -5 16 13
v -5 37 13
v 8 16 13
v 8 37 13
v 20 0 13
v 20 40 13
v -20 0 20
v 20 0 20
v -20 0 13
v 20 0 13
v -4 25 18
v -1 25 18
v 0 25 18
v 7 25 18
v -4 25 15
v -1 25 15
v 0 25 15
v 7 25 15
v -4 36 18
v -1 36 18
v 0 36 18
v 7 36 18
v -4 36 15
v -1 36 15
v 0 36 15
v 7 36 15
v -5 37 20
v 8 37 20
v -5 37 18
v 8 37 18
v -5 37 15
v 8 37 15
v -5 37 13
v 8 37 13
v -5 16 20
v 8 16 20
v -5 16 19
v 8 16 19
v -5 16 18
v 8 16 18
v -5 16 15
v 8 16 15
v -5 16 13
v 8 16 13
v -4 17 18
v -1 17 18
v 0 17 18
v 7 17 18
v -4 17 15
v -1 17 15
v 0 17 15
v 7 17 15
v -4 26 18
v -1 26 18
v 0 26 18
v 7 26 18
v -4 26 15
v -1 26 15
v 0 26 15
v 7 26 15
v -20 40 20
v 20 40 20
v -20 40 13
v 20 40 13

# faces
f 3/1/1 2/1/1 1/1/1
f 4/1/1 2/1/1 3/1/1
f 5/2/1 4/2/1 3/2/1
f 6/1/1 2/1/1 4/1/1
f 6/2/1 4/2/1 5/2/1
f 7/1/1 6/1/1 5/1/1
f 8/1/1 2/1/1 6/1/1
f 8/1/1 6/1/1 7/1/1
f 11/3/1 10/3/1 9/3/1
f 12/3/1 10/3/1 11/3/1
f 15/3/1 14/3/1 13/3/1
f 16/3/1 14/3/1 15/3/1
f 19/3/1 18/3/1 17/3/1
f 20/3/1 18/3/1 19/3/1
f 23/3/1 22/3/1 21/3/1
f 24/3/1 22/3/1 23/3/1
f 30/2/1 26/2/1 25/2/1
f 31/1/1 27/1/1 26/1/1
f 31/2/1 26/2/1 30/2/1
f 32/1/1 31/1/1 30/1/1
f 33/1/1 27/1/1 31/1/1
f 33/1/1 31/1/1 32/1/1
f 34/1/1 29/1/1 28/1/1
f 35/1/1 29/1/1 34/1/1
f 36/2/2 37/2/2 41/2/2
f 37/1/2 38/1/2 42/1/2
f 41/2/2 37/2/2 42/2/2
f 41/1/2 42/1/2 43/1/2
f 42/1/2 38/1/2 44/1/2
f 43/1/2 42/1/2 44/1/2
f 39/1/2 40/1/2 45/1/2
f 45/1/2 40/1/2 46/1/2
f 47/3/2 48/3/2 49/3/2
f 49/3/2 48/3/2 50/3/2
f 51/3/2 52/3/2 53/3/2
f 53/3/2 52/3/2 54/3/2
f 55/3/2 56/3/2 57/3/2
f 57/3/2 56/3/2 58/3/2
f 59/3/2 60/3/2 61/3/2
f 61/3/2 60/3/2 62/3/2
f 63/1/2 64/1/2 65/1/2
f 65/1/2 64/1/2 66/1/2
f 65/2/2 66/2/2 67/2/2
f 66/1/2 64/1/2 68/1/2
f 67/2/2 66/2/2 68/2/2
f 67/1/2 68/1/2 69/1/2
f 68/1/2 64/1/2 70/1/2
f 69/1/2 68/1/2 70/1/2
f 75/2/3 73/2/3 72/2/3
f 76/1/3 74/1/3 73/1/3
f 76/2/3 73/2/3 75/2/3
f 77/1/3 74/1/3 76/1/3
f 78/2/3 75/2/3 72/2/3
f 80/1/3 74/1/3 77/1/3
f 81/1/3 72/1/3 71/1/3
f 82/2/3 79/2/3 78/2/3
f 82/1/3 72/1/3 81/1/3
f 82/2/3 78/2/3 72/2/3
f 83/1/3 80/1/3 79/1/3
f 83/2/3 79/2/3 82/2/3
f 84/1/3 74/1/3 80/1/3
f 84/1/3 80/1/3 83/1/3
f 87/3/3 86/3/3 85/3/3
f 88/3/3 86/3/3 87/3/3
f 89/3/3 86/3/3 88/3/3
f 90/3/3 86/3/3 89/3/3
f 91/3/3 87/3/3 85/3/3
f 92/3/3 89/3/3 88/3/3
f 93/3/3 89/3/3 92/3/3
f 94/3/3 86/3/3 90/3/3
f 95/3/3 93/3/3 92/3/3
f 95/3/3 94/3/3 93/3/3
f 95/3/3 91/3/3 85/3/3
f 95/3/3 92/3/3 91/3/3
f 96/3/3 94/3/3 95/3/3
f 97/3/3 94/3/3 96/3/3
f 98/3/3 86/3/3 94/3/3
f 98/3/3 94/3/3 97/3/3
f 99/3/3 95/3/3 85/3/3
f 100/3/3 97/3/3 96/3/3
f 101/3/3 97/3/3 100/3/3
f 102/3/3 86/3/3 98/3/3
f 103/3/3 99/3/3 85/3/3
f 103/3/3 102/3/3 101/3/3
f 103/3/3 101/3/3 100/3/3
f 103/3/3 100/3/3 99/3/3
f 104/3/3 86/3/3 102/3/3
f 104/3/3 102/3/3 103/3/3
f 105/3/4 106/3/4 107/3/4
f 107/3/4 106/3/4 108/3/4
f 108/3/4 106/3/4 109/3/4
f 109/3/4 106/3/4 110/3/4
f 105/3/4 107/3/4 111/3/4
f 108/3/4 109/3/4 112/3/4
f 112/3/4 109/3/4 113/3/4
f 110/3/4 106/3/4 114/3/4
f 112/3/4 113/3/4 115/3/4
f 113/3/4 114/3/4 115/3/4
f 105/3/4 111/3/4 115/3/4
f 111/3/4 112/3/4 115/3/4
f 115/3/4 114/3/4 116/3/4
f 116/3/4 114/3/4 117/3/4
f 114/3/4 106/3/4 118/3/4
f 117/3/4 114/3/4 118/3/4
f 105/3/4 115/3/4 119/3/4
f 116/3/4 117/3/4 120/3/4
f 120/3/4 117/3/4 121/3/4
f 118/3/4 106/3/4 122/3/4
f 105/3/4 119/3/4 123/3/4
f 121/3/4 122/3/4 123/3/4
f 120/3/4 121/3/4 123/3/4
f 119/3/4 120/3/4 123/3/4
f 122/3/4 106/3/4 124/3/4
f 123/3/4 122/3/4 124/3/4
f 125/1/4 126/1/4 127/1/4
f 127/1/4 126/1/4 128/1/4
f 125/1/4 127/1/4 129/1/4
f 128/1/4 126/1/4 130/1/4
f 125/1/4 129/1/4 131/1/4
f 129/1/4 130/1/4 131/1/4
f 130/1/4 126/1/4 132/1/4
f 131/1/4 130/1/4 132/1/4
f 135/1/5 134/1/5 133/1/5
f 136/1/5 134/1/5 135/1/5
f 141/3/5 138/3/5 137/3/5
f 142/3/5 138/3/5 141/3/5
f 143/3/5 140/3/5 139/3/5
f 144/3/5 140/3/5 143/3/5
f 149/3/5 146/3/5 145/3/5
f 150/3/5 146/3/5 149/3/5
f 151/3/5 148/3/5 147/3/5
f 152/3/5 148/3/5 151/3/5
f 155/1/5 154/1/5 153/1/5
f 156/1/5 154/1/5 155/1/5
f 159/1/5 158/1/5 157/1/5
f 160/1/5 158/1/5 159/1/5
f 161/2/6 162/2/6 163/2/6
f 163/2/6 162/2/6 164/2/6
f 163/1/6 164/1/6 165/1/6
f 165/1/6 164/1/6 166/1/6
f 167/1/6 168/1/6 169/1/6
f 169/1/6 168/1/6 170/1/6
f 171/3/6 172/3/6 175/3/6
f 175/3/6 172/3/6 176/3/6
f 173/3/6 174/3/6 177/3/6
f 177/3/6 174/3/6 178/3/6
f 179/3/6 180/3/6 183/3/6
f 183/3/6 180/3/6 184/3/6
f 181/3/6 182/3/6 185/3/6
f 185/3/6 182/3/6 186/3/6
f 187/1/6 188/1/6 189/1/6
f 189/1/6 188/1/6 190/1/6
